<!-- icon666.com - MILLIONS vector ICONS FREE --><svg viewBox="-8 0 483 483.346" xmlns="http://www.w3.org/2000/svg"><path d="m18.71875 195.429688h428.546875v244.042968h-428.546875zm0 0" fill="#a4c9ff" style="fill: rgb(240, 242, 244);"></path><path d="m447.269531 443.472656h-428.550781c-2.210938 0-4-1.789062-4-4v-244.042968c0-2.207032 1.789062-4 4-4h428.546875c2.210937 0 4 1.792968 4 4v244.042968c.003906 2.210938-1.789063 4-3.996094 4zm-424.550781-8h420.546875v-236.042968h-420.546875zm0 0" fill="#3762cc"></path><path d="m427.324219 76.199219h-388.636719v-17.652344c0-3.316406 2.683594-6 6-6h376.636719c3.316406 0 6 2.683594 6 6zm0 0" fill="#6bdddd"></path><path d="m371.367188 76.199219h-55.109376l14.914063 119.230469h65zm0 0" fill="#e0ebfc"></path><path d="m260.304688 76.199219h-54.261719l-4.871094 119.230469h64zm0 0" fill="#e0ebfc"></path><path d="m39.023438 76.199219-34.851563 119.230469h66l24.808594-119.230469zm0 0" fill="#6bdddd"></path><path d="m427.324219 76.199219h-55.957031l24.804687 119.230469h66zm0 0" fill="#6bdddd"></path><path d="m94.980469 76.199219-24.808594 119.230469h65l14.914063-119.230469zm0 0" fill="#e0ebfc"></path><path d="m316.257812 76.199219h-55.953124l4.867187 119.230469h66zm0 0" fill="#6bdddd"></path><path d="m205.835938 76.199219h-55.75l-14.914063 119.230469h66l4.871094-119.230469zm0 0" fill="#6bdddd"></path><path d="m37.238281 244.097656h-.316406c-18.085937 0-32.75-14.664062-32.75-32.75v-15.917968h65.816406v15.917968c0 18.085938-14.664062 32.75-32.75 32.75zm0 0" fill="#6bdddd"></path><path d="m102.578125 244.097656c-18 0-32.59375-14.59375-32.59375-32.59375v-16.074218h65.1875v16.074218c0 18-14.589844 32.59375-32.59375 32.59375zm0 0" fill="#e0ebfc"></path><path d="m168.550781 244.097656h-.753906c-18.019531 0-32.625-14.609375-32.625-32.625v-16.042968h66v16.042968c0 18.015625-14.605469 32.625-32.621094 32.625zm0 0" fill="#6bdddd"></path><path d="m233.171875 244.097656c-17.671875 0-32-14.328125-32-32v-16.667968h64v16.667968c0 17.671875-14.324219 32-32 32zm0 0" fill="#e0ebfc"></path><path d="m298.230469 244.097656h-.246094c-18.121094 0-32.8125-14.691406-32.8125-32.8125v-15.855468h65.867187v15.855468c0 18.121094-14.6875 32.8125-32.808593 32.8125zm0 0" fill="#6bdddd"></path><path d="m363.726562 244.097656c-18.050781 0-32.6875-14.636718-32.6875-32.6875v-15.980468h65.375v15.980468c0 18.050782-14.632812 32.6875-32.6875 32.6875zm0 0" fill="#e0ebfc"></path><path d="m429.390625 244.097656h-.191406c-18.105469 0-32.78125-14.679687-32.78125-32.785156v-15.882812h65.753906v15.882812c0 18.105469-14.675781 32.785156-32.78125 32.785156zm0 0" fill="#6bdddd"></path><g fill="#3762cc"><path d="m427.324219 80.199219h-388.636719c-2.207031 0-4-1.792969-4-4v-17.652344c0-5.515625 4.484375-10 10-10h376.636719c5.511719 0 10 4.484375 10 10v17.652344c0 2.207031-1.792969 4-4 4zm-384.636719-8h380.636719v-13.652344c0-1.105469-.898438-2-2-2h-376.636719c-1.101562 0-2 .894531-2 2zm0 0" fill="#3762cc"></path><path d="m396.171875 199.429688h-65c-2.015625 0-3.71875-1.5-3.96875-3.503907l-14.914063-119.230469c-.140624-1.140624.210938-2.285156.972657-3.144531.757812-.859375 1.851562-1.351562 2.996093-1.351562h55.109376c1.894531 0 3.53125 1.328125 3.917968 3.183593l24.804688 119.234376c.246094 1.175781-.054688 2.402343-.8125 3.335937-.761719.933594-1.898438 1.476563-3.105469 1.476563zm-61.46875-8h56.550781l-23.140625-111.230469h-47.324219zm0 0" fill="#3762cc"></path><path d="m265.171875 199.429688h-64c-1.085937 0-2.128906-.445313-2.886719-1.230469-.753906-.785157-1.152344-1.84375-1.109375-2.933594l4.871094-119.230469c.085937-2.144531 1.851563-3.835937 3.996094-3.835937h54.261719c2.144531 0 3.90625 1.691406 3.996093 3.835937l4.867188 119.230469c.046875 1.089844-.355469 2.148437-1.109375 2.933594-.753906.785156-1.796875 1.230469-2.886719 1.230469zm-59.832031-8h55.664062l-4.539062-111.230469h-46.582032zm0 0" fill="#3762cc"></path><path d="m70.171875 199.429688h-66c-1.257813 0-2.445313-.59375-3.199219-1.601563s-.9921872-2.3125-.640625-3.523437l34.851563-119.230469c.5-1.707031 2.0625-2.875 3.839844-2.875h55.957031c1.203125 0 2.34375.539062 3.101562 1.476562.757813.933594 1.058594 2.160157.8125 3.335938l-24.804687 119.230469c-.386719 1.859374-2.019532 3.1875-3.917969 3.1875zm-60.664063-8h57.410157l23.144531-111.230469h-48.042969zm0 0" fill="#3762cc"></path><path d="m462.171875 199.429688h-66c-1.894531 0-3.527344-1.328126-3.914063-3.1875l-24.804687-119.230469c-.246094-1.175781.050781-2.402344.8125-3.335938.757813-.9375 1.898437-1.476562 3.101563-1.476562h55.957031c1.777343 0 3.34375 1.171875 3.839843 2.875l34.851563 119.230469c.351563 1.210937.117187 2.515624-.636719 3.523437-.757812 1.007813-1.945312 1.601563-3.207031 1.601563zm-62.746094-8h57.410157l-32.511719-111.230469h-48.039063zm0 0" fill="#3762cc"></path><path d="m135.171875 199.429688h-65c-1.203125 0-2.34375-.542969-3.101563-1.476563-.757812-.933594-1.058593-2.160156-.8125-3.335937l24.804688-119.234376c.386719-1.855468 2.019531-3.183593 3.917969-3.183593h55.105469c1.148437 0 2.242187.492187 3 1.351562.757812.859375 1.113281 2.003907.972656 3.144531l-14.914063 119.230469c-.253906 2.003907-1.953125 3.503907-3.972656 3.503907zm-60.082031-8h56.550781l13.914063-111.230469h-47.320313zm0 0" fill="#3762cc"></path><path d="m331.171875 199.429688h-66c-2.144531 0-3.90625-1.695313-3.996094-3.835938l-4.867187-119.230469c-.046875-1.089843.355468-2.148437 1.109375-2.933593.753906-.789063 1.796875-1.230469 2.886719-1.230469h55.953124c2.019532 0 3.71875 1.5 3.96875 3.503906l14.914063 119.230469c.140625 1.136718-.210937 2.285156-.96875 3.140625-.757813.863281-1.851563 1.355469-3 1.355469zm-62.160156-8h57.628906l-13.914063-111.230469h-48.257812zm0 0" fill="#3762cc"></path><path d="m201.171875 199.429688h-66c-1.148437 0-2.238281-.492188-3-1.355469-.757813-.859375-1.109375-2.003907-.96875-3.140625l14.914063-119.230469c.25-2.003906 1.953124-3.503906 3.96875-3.503906h55.953124c1.089844 0 2.132813.441406 2.886719 1.230469.753907.785156 1.15625 1.84375 1.113281 2.933593l-4.871093 119.230469c-.085938 2.140625-1.847657 3.835938-3.996094 3.835938zm-61.46875-8h57.628906l4.542969-111.230469h-48.257812zm0 0" fill="#3762cc"></path><path d="m37.238281 248.097656h-.316406c-20.261719 0-36.75-16.488281-36.75-36.75v-15.917968c0-2.207032 1.792969-4 4-4h65.816406c2.207031 0 4 1.792968 4 4v15.917968c0 20.261719-16.488281 36.75-36.75 36.75zm-29.066406-48.667968v11.917968c0 15.851563 12.898437 28.75 28.75 28.75h.316406c15.851563 0 28.75-12.898437 28.75-28.75v-11.917968zm0 0" fill="#3762cc"></path><path d="m102.578125 248.097656c-20.175781 0-36.589844-16.417968-36.589844-36.59375v-16.074218c0-2.207032 1.789063-4 4-4h65.183594c2.210937 0 4 1.792968 4 4v16.074218c0 20.175782-16.414063 36.59375-36.59375 36.59375zm-28.589844-48.667968v12.074218c0 15.765625 12.828125 28.59375 28.589844 28.59375 15.765625 0 28.59375-12.828125 28.59375-28.59375v-12.074218zm0 0" fill="#3762cc"></path><path d="m168.550781 248.097656h-.753906c-20.195313 0-36.625-16.433594-36.625-36.625v-16.042968c0-2.207032 1.792969-4 4-4h66c2.207031 0 4 1.792968 4 4v16.042968c0 20.191406-16.425781 36.625-36.621094 36.625zm-29.378906-48.667968v12.042968c0 15.785156 12.839844 28.625 28.625 28.625h.753906c15.785157 0 28.625-12.839844 28.625-28.625v-12.042968zm0 0" fill="#3762cc"></path><path d="m233.171875 248.097656c-19.847656 0-36-16.152344-36-36v-16.667968c0-2.207032 1.792969-4 4-4h64c2.210937 0 4 1.792968 4 4v16.667968c0 19.847656-16.148437 36-36 36zm-28-48.667968v12.667968c0 15.4375 12.5625 28 28 28 15.441406 0 28-12.5625 28-28v-12.667968zm0 0" fill="#3762cc"></path><path d="m298.230469 248.097656h-.246094c-20.296875 0-36.8125-16.515625-36.8125-36.8125v-15.855468c0-2.207032 1.792969-4 4-4h65.867187c2.210938 0 4 1.792968 4 4v15.855468c0 20.296875-16.511718 36.8125-36.808593 36.8125zm-29.058594-48.667968v11.855468c0 15.886719 12.925781 28.8125 28.8125 28.8125h.246094c15.882812 0 28.808593-12.925781 28.808593-28.8125v-11.855468zm0 0" fill="#3762cc"></path><path d="m363.726562 248.097656c-20.230468 0-36.6875-16.460937-36.6875-36.691406v-15.976562c0-2.207032 1.792969-4 4-4h65.375c2.207032 0 4 1.792968 4 4v15.976562c0 20.230469-16.453124 36.691406-36.6875 36.691406zm-28.6875-48.667968v11.976562c0 15.820312 12.871094 28.691406 28.691407 28.691406 15.816406 0 28.6875-12.871094 28.6875-28.691406v-11.976562zm0 0" fill="#3762cc"></path><path d="m429.390625 248.097656h-.195313c-20.28125 0-36.78125-16.5-36.78125-36.785156v-15.882812c0-2.207032 1.789063-4 4-4h65.757813c2.210937 0 4 1.792968 4 4v15.882812c0 20.285156-16.5 36.785156-36.78125 36.785156zm-28.976563-48.667968v11.882812c0 15.871094 12.914063 28.785156 28.78125 28.785156h.195313c15.871094 0 28.785156-12.914062 28.785156-28.785156v-11.882812zm0 0" fill="#3762cc"></path></g><path d="m455.128906 479.347656h-444.269531c-2.210937 0-4-1.792968-4-4v-31.921875c0-2.210937 1.789063-4 4-4h444.265625c2.210938 0 4 1.789063 4 4v31.921875c.003906 2.207032-1.789062 4-3.996094 4zm0 0" fill="#f9a7a7"></path><path d="m398.738281 439.472656h-95.746093v-175.9375c0-4.550781 3.6875-8.238281 8.238281-8.238281h79.265625c4.550781 0 8.238281 3.6875 8.238281 8.238281v175.9375zm0 0" fill="#f9a7a7"></path><path d="m268.5625 408.007812h-219.398438c-2.375 0-4.300781-1.925781-4.300781-4.300781v-18.777343c0-2.375 1.925781-4.300782 4.300781-4.300782h219.398438c2.375 0 4.300781 1.925782 4.300781 4.300782v18.777343c0 2.375-1.925781 4.300781-4.300781 4.300781zm0 0" fill="#f9a7a7"></path><path d="m368.960938 423.042969h-37.859376c-4.417968 0-8-3.582031-8-8v-135.316407c0-4.417968 3.582032-8 8-8h37.859376c4.417968 0 8 3.582032 8 8v135.316407c0 4.417969-3.578126 8-8 8zm0 0" fill="#e0ebfc"></path><path d="m285.53125 439.472656h130.664062c2.210938 0 4 1.792969 4 4v15.914063h-138.664062v-15.914063c0-2.207031 1.789062-4 4-4zm0 0" fill="#f9cfcf"></path><path d="m270.4375 459.382812h161.167969c2.210937 0 4 1.792969 4 4v15.914063h-169.167969v-15.914063c0-2.207031 1.792969-4 4-4zm0 0" fill="#f9cfcf"></path><path d="m455.128906 483.347656h-444.269531c-4.414063 0-8-3.589844-8-8v-31.921875c0-4.414062 3.585937-8 8-8h444.265625c4.410156 0 8 3.585938 8 8v31.921875c.003906 4.410156-3.585938 8-7.996094 8zm-444.269531-39.921875v31.921875h444.273437l-.007812-31.921875zm0 0" fill="#3762cc"></path><path d="m420.199219 463.382812h-138.667969c-2.207031 0-4-1.789062-4-4v-15.910156c0-4.410156 3.585938-8 8-8h130.667969c4.410156 0 8 3.589844 8 8v15.910156c0 2.210938-1.792969 4-4 4zm-134.671875-8h130.671875v-11.910156h-130.675781zm0 0" fill="#3762cc"></path><path d="m435.605469 483.296875h-169.164063c-2.207031 0-4-1.789063-4-4v-15.910156c0-4.414063 3.585938-8 8-8h161.164063c4.410156 0 8 3.585937 8 8v15.910156c0 2.210937-1.792969 4-4 4zm-165.167969-8h161.167969v-11.910156h-161.171875zm0 0" fill="#3762cc"></path><path d="m398.738281 443.472656h-95.746093c-2.210938 0-4-1.789062-4-4v-175.9375c0-6.75 5.488281-12.238281 12.238281-12.238281h79.265625c6.75 0 12.242187 5.488281 12.242187 12.238281v175.9375c0 2.210938-1.792969 4-4 4zm-91.746093-8h87.746093v-171.9375c0-2.335937-1.902343-4.238281-4.242187-4.238281h-79.265625c-2.335938 0-4.238281 1.902344-4.238281 4.238281zm0 0" fill="#3762cc"></path><path d="m256.863281 380.628906h-196v-116.300781c0-4.203125 3.40625-7.605469 7.609375-7.605469h180.785156c4.203126 0 7.605469 3.40625 7.605469 7.605469zm0 0" fill="#e0ebfc"></path><path d="m268.5625 412.007812h-219.394531c-4.578125 0-8.304688-3.722656-8.304688-8.300781v-18.777343c0-4.574219 3.726563-8.300782 8.304688-8.300782h219.398437c4.574219 0 8.296875 3.726563 8.296875 8.300782v18.777343c0 4.578125-3.722656 8.300781-8.300781 8.300781zm-219.394531-27.378906c-.167969 0-.304688.136719-.304688.300782v18.777343c0 .164063.136719.300781.304688.300781h219.398437c.164063 0 .296875-.136718.296875-.300781v-18.777343c0-.164063-.132812-.300782-.296875-.300782zm0 0" fill="#3762cc"></path><path d="m256.863281 384.628906h-196c-2.207031 0-4-1.789062-4-4v-116.300781c0-6.398437 5.210938-11.605469 11.609375-11.605469h180.785156c6.398438 0 11.605469 5.207032 11.605469 11.605469v116.300781c0 2.210938-1.789062 4-4 4zm-192-8h188v-112.300781c0-1.988281-1.617187-3.605469-3.605469-3.605469h-180.785156c-1.988281 0-3.609375 1.617188-3.609375 3.605469zm0 0" fill="#3762cc"></path><path d="m233.171875 4.003906c-48.835937 0-88.425781 39.589844-88.425781 88.425782 0 48.835937 39.589844 88.425781 88.425781 88.425781s88.425781-39.589844 88.425781-88.425781c0-48.835938-39.589844-88.425782-88.425781-88.425782zm0 122.640625c-18.863281 0-34.214844-15.347656-34.214844-34.214843 0-18.867188 15.351563-34.214844 34.214844-34.214844 18.867187 0 34.21875 15.347656 34.21875 34.214844 0 18.867187-15.351563 34.214843-34.21875 34.214843zm0 0" fill="#f9cfcf"></path><path d="m233.171875 184.855469c-50.960937 0-92.425781-41.460938-92.425781-92.425781 0-50.964844 41.464844-92.42578175 92.425781-92.42578175 50.964844 0 92.429687 41.46093775 92.429687 92.42578175 0 50.960937-41.464843 92.425781-92.429687 92.425781zm0-176.851563c-46.550781 0-84.425781 37.875-84.425781 84.425782 0 46.550781 37.875 84.425781 84.425781 84.425781 46.554687 0 84.429687-37.875 84.429687-84.425781 0-46.550782-37.875-84.425782-84.429687-84.425782zm0 122.640625c-21.070313 0-38.214844-17.140625-38.214844-38.214843 0-21.070313 17.144531-38.214844 38.214844-38.214844 21.074219 0 38.21875 17.144531 38.21875 38.214844 0 21.074218-17.144531 38.214843-38.21875 38.214843zm0-68.429687c-16.660156 0-30.214844 13.554687-30.214844 30.214844 0 16.660156 13.554688 30.214843 30.214844 30.214843 16.664063 0 30.21875-13.554687 30.21875-30.214843 0-16.660157-13.554687-30.214844-30.21875-30.214844zm0 0" fill="#3762cc"></path><path d="m321.597656 92.429688c0-48.835938-39.589844-88.425782-88.425781-88.425782s-88.425781 39.589844-88.425781 88.425782c0 5.328124.5 10.535156 1.402344 15.605468v25.417969c0 7.109375 5.761718 12.875 12.875 12.875h4.699218c7.109375 0 12.875-5.761719 12.875-12.875v-15.902344c0 7.394531 6.234375 13.332031 13.730469 12.847657 6.84375-.441407 12.019531-6.429688 12.019531-13.285157v-9.078125h.394532c-2.925782-5.683594-4.320313-12.28125-3.589844-19.25 1.722656-16.460937 15.386718-29.503906 31.902344-30.507812 19.824218-1.203125 36.335937 14.582031 36.335937 34.152344 0 5.617187-1.371094 10.921874-3.78125 15.605468v41.386719c0 5.742187 4.65625 10.398437 10.398437 10.398437h8.566407c5.742187 0 10.398437-4.65625 10.398437-10.398437v-37.472656c0-2.164063 1.753906-3.914063 3.914063-3.914063 2.164062 0 3.914062 1.75 3.914062 3.914063 0 5.078125 4.117188 9.199219 9.199219 9.199219h1.199219c5.746093 0 10.402343-4.65625 10.402343-10.402344v-18.316406zm0 0" fill="#f9a7a7"></path><path d="m196.53125 43.03125-4.847656-9.699219c-1.335938-2.679687-.253906-5.933593 2.425781-7.273437 2.675781-1.339844 5.933594-.253906 7.273437 2.421875l4.847657 9.699219c1.339843 2.679687.253906 5.933593-2.421875 7.273437-2.679688 1.339844-5.9375.253906-7.277344-2.421875zm0 0" fill="#ffea92"></path><path d="m181.949219 69.136719-8.847657-6.269531c-2.441406-1.730469-3.019531-5.113282-1.285156-7.558594 1.730469-2.441406 5.113282-3.019532 7.554688-1.285156l8.847656 6.265624c2.441406 1.734376 3.019531 5.113282 1.289062 7.558594-1.730468 2.441406-5.113281 3.019532-7.558593 1.289063zm0 0" fill="#ffea92"></path><path d="m252.535156 33.640625-8.589844 6.617187c-2.371093 1.828126-5.777343 1.386719-7.601562-.984374-1.828125-2.375-1.386719-5.777344.984375-7.601563l8.589844-6.617187c2.371093-1.828126 5.777343-1.386719 7.601562.984374 1.828125 2.371094 1.386719 5.777344-.984375 7.601563zm0 0" fill="#ffea92"></path><path d="m284.683594 45.035156-4.347656 9.929688c-1.199219 2.742187-4.398438 3.992187-7.140626 2.792968-2.742187-1.199218-3.992187-4.398437-2.789062-7.140624l4.347656-9.929688c1.199219-2.742188 4.398438-3.992188 7.140625-2.792969 2.742188 1.199219 3.992188 4.398438 2.789063 7.140625zm0 0" fill="#ffea92"></path><path d="m305.925781 76.96875-9.695312 4.847656c-2.679688 1.335938-5.933594.253906-7.277344-2.425781-1.335937-2.675781-.253906-5.933594 2.425781-7.273437l9.699219-4.847657c2.675781-1.335937 5.933594-.253906 7.273437 2.425781 1.339844 2.675782.253907 5.933594-2.425781 7.273438zm0 0" fill="#ffea92"></path><path d="m177.664062 102.699219-9.699218 4.847656c-2.679688 1.339844-5.933594.253906-7.273438-2.421875-1.339844-2.679688-.253906-5.933594 2.421875-7.273438l9.699219-4.847656c2.679688-1.339844 5.933594-.257812 7.273438 2.421875 1.339843 2.679688.253906 5.9375-2.421876 7.273438zm0 0" fill="#ffea92"></path><path d="m282.570312 163.816406h-8.5625c-7.941406 0-14.398437-6.457031-14.398437-14.394531v-41.386719c0-.636718.152344-1.261718.445313-1.828125 2.210937-4.304687 3.335937-8.941406 3.335937-13.777343 0-8.402344-3.382813-16.214844-9.527344-21.996094-6.128906-5.777344-14.144531-8.660156-22.566406-8.164063-14.546875.882813-26.65625 12.457031-28.167969 26.929688-.621094 5.898437.476563 11.78125 3.167969 17.007812.574219 1.117188.585937 2.4375.046875 3.558594v7.34375c0 9.117187-6.921875 16.707031-15.757812 17.28125-3.570313.222656-7.03125-.636719-9.992188-2.476563v1.539063c0 9.304687-7.570312 16.875-16.875 16.875h-4.699219c-9.304687 0-16.875-7.566406-16.875-16.875v-25.070313c-.929687-5.332031-1.402343-10.699218-1.402343-15.953124 0-50.964844 41.460937-92.429688 92.425781-92.429688 50.964843 0 92.429687 41.460938 92.429687 92.429688v18.316406c0 7.941406-6.460937 14.398437-14.402344 14.398437h-1.199218c-7.238282 0-13.132813-5.851562-13.199219-13.074219l.171875 37.347657c.003906 7.941406-6.457031 14.398437-14.398438 14.398437zm-14.960937-54.839844v40.445313c0 3.527344 2.871094 6.394531 6.398437 6.394531h8.5625c3.53125 0 6.402344-2.871094 6.402344-6.394531v-37.472656c0-4.363281 3.546875-7.914063 7.914063-7.914063 4.363281 0 7.914062 3.550782 7.914062 7.914063 0 2.867187 2.332031 5.199219 5.199219 5.199219h1.199219c3.53125 0 6.402343-2.871094 6.402343-6.398438v-18.316406c0-46.554688-37.875-84.429688-84.429687-84.429688-46.550781 0-84.425781 37.875-84.425781 84.425782 0 4.898437.449218 9.917968 1.339844 14.90625.042968.230468.0625.464843.0625.699218v25.417969c0 4.894531 3.980468 8.875 8.875 8.875h4.699218c4.890625 0 8.875-3.980469 8.875-8.875v-15.902344c0-2.207031 1.792969-4 4-4 2.207032 0 4 1.792969 4 4 0 2.480469.996094 4.78125 2.808594 6.476563 1.808594 1.695312 4.164062 2.550781 6.664062 2.375 4.644532-.296875 8.277344-4.378906 8.277344-9.292969v-8.976563c-2.789062-6.167968-3.886718-12.957031-3.175781-19.765624 1.917969-18.316407 17.242187-32.96875 35.640625-34.082032 10.636719-.644531 20.78125 3.019532 28.539062 10.320313 7.652344 7.203125 12.042969 17.34375 12.042969 27.824219-.003906 5.789062-1.277343 11.351562-3.785156 16.546874zm0 0" fill="#3762cc"></path><path d="m203.863281 384.628906h-90c-2.207031 0-4-1.789062-4-4v-118.753906c0-5.046875 4.109375-9.152344 9.15625-9.152344h79.691407c5.046874 0 9.152343 4.105469 9.152343 9.152344v118.753906c0 2.210938-1.789062 4-4 4zm-86-8h82v-114.753906c0-.636719-.515625-1.152344-1.152343-1.152344h-79.691407c-.636719 0-1.15625.515625-1.15625 1.152344zm0 0" fill="#3762cc"></path></svg>