<!-- icon666.com - MILLIONS vector ICONS FREE --><svg viewBox="0 0 128 128" xmlns="http://www.w3.org/2000/svg"><g><path d="m6.306 111.949h115.387v9.745h-115.387z" fill="#4ec4b5"></path><path d="m108.733 6.306h-89.466l-12.961 24.454v11.084a11.539 11.539 0 0 0 11.539 11.539 11.539 11.539 0 0 0 11.539-11.539 11.539 11.539 0 0 0 11.539 11.539 11.539 11.539 0 0 0 11.538-11.539 11.539 11.539 0 0 0 23.078 0 11.531 11.531 0 0 0 11.538 11.539 11.539 11.539 0 0 0 11.539-11.539 11.539 11.539 0 0 0 11.539 11.539 11.539 11.539 0 0 0 11.539-11.539v-11.084z" fill="#e2e8ed"></path><path d="m110.155 53.383a11.539 11.539 0 0 1 -11.539-11.539 11.539 11.539 0 0 1 -11.539 11.539 11.531 11.531 0 0 1 -11.538-11.539 11.539 11.539 0 1 1 -23.078 0 11.539 11.539 0 0 1 -11.538 11.539 11.539 11.539 0 0 1 -11.539-11.539 11.539 11.539 0 0 1 -11.539 11.539 11.487 11.487 0 0 1 -4-.727v59.293h100.31v-59.293a11.487 11.487 0 0 1 -4 .727z" fill="#f9cc4e"></path><path d="m27.253 62.79h29.863v49.159h-29.863z" fill="#4ec4b5"></path><path d="m67.54 62.79h33.208v23.261h-33.208z" fill="#4ec4b5"></path><g fill="#f95050"><path d="m37.41 6.31-8.03 24.45v11.08a11.535 11.535 0 1 1 -23.07 0v-11.08l12.96-24.45z"></path><path d="m90.59 6.31 8.03 24.45v11.08a11.535 11.535 0 1 0 23.07 0v-11.08l-12.96-24.45z"></path><path d="m75.54 30.76v11.08a11.54 11.54 0 1 1 -23.08 0v-11.08l2.47-24.45h18.14z"></path></g><g fill="#142850"><path d="m36.111 119.943h-4.5a1.75 1.75 0 1 0 0 3.5h4.5a1.75 1.75 0 1 0 0-3.5z"></path><path d="m123.443 41.844v-11.084c0-.024-.006-.046-.007-.069a1.528 1.528 0 0 0 -.019-.19c-.008-.054-.017-.108-.03-.161s-.031-.107-.05-.16a1.737 1.737 0 0 0 -.07-.173c-.011-.021-.016-.044-.027-.066l-12.961-24.454a1.75 1.75 0 0 0 -1.546-.93h-23.2a1.75 1.75 0 0 0 0 3.5h3.789l6.878 20.953h-19.079l-2.114-20.953h2.848a1.75 1.75 0 0 0 0-3.5h-58.588a1.75 1.75 0 0 0 -1.546.93l-12.961 24.454c-.011.022-.016.045-.027.066a1.737 1.737 0 0 0 -.07.173c-.019.053-.036.106-.05.16s-.022.107-.03.161a1.528 1.528 0 0 0 -.019.19c0 .023-.007.045-.007.069v11.084a13.292 13.292 0 0 0 7.543 11.962v56.394h-5.793a1.75 1.75 0 0 0 -1.75 1.75v9.744a1.749 1.749 0 0 0 1.75 1.75h16.65a1.75 1.75 0 1 0 0-3.5h-14.9v-6.244h111.886v6.244h-75.594a1.75 1.75 0 0 0 0 3.5h77.344a1.749 1.749 0 0 0 1.75-1.75v-9.744a1.75 1.75 0 0 0 -1.75-1.75h-5.788v-56.394a13.292 13.292 0 0 0 7.538-11.962zm-3.5 0a9.789 9.789 0 1 1 -19.577 0v-9.334h19.577zm-88.809-9.334h19.577v9.334a9.789 9.789 0 1 1 -19.577 0zm21.859-24.453-2.114 20.953h-19.079l6.878-20.953zm1.218 24.453h19.578v9.334a9.79 9.79 0 0 1 -18.545 4.381 9.68 9.68 0 0 1 -1.033-4.381zm23.078 0h19.577v9.334a9.79 9.79 0 0 1 -18.586 4.3 9.685 9.685 0 0 1 -.991-4.3zm15.717-24.453h14.674l11.1 20.953h-18.9zm-19.406 20.953h-19.2l2.111-20.953h14.978zm-53.28-20.953h14.674l-6.878 20.953h-18.901zm-12.263 33.787v-9.334h19.577v9.334a9.789 9.789 0 1 1 -19.577 0zm47.309 68.356h-26.366v-45.659h26.366zm57.039 0h-53.539v-47.409a1.75 1.75 0 0 0 -1.75-1.75h-29.864a1.75 1.75 0 0 0 -1.75 1.75v47.409h-9.902v-55.272a13.172 13.172 0 0 0 13.789-6.5 13.284 13.284 0 0 0 23.074.005 13.289 13.289 0 0 0 23.078 0 13.289 13.289 0 0 0 23.08-.005 13.172 13.172 0 0 0 13.789 6.5z"></path><path d="m100.748 61.041h-33.208a1.749 1.749 0 0 0 -1.75 1.75v23.26a1.749 1.749 0 0 0 1.75 1.75h33.208a1.75 1.75 0 0 0 1.75-1.75v-23.26a1.75 1.75 0 0 0 -1.75-1.75zm-1.748 23.259h-29.71v-19.759h29.71z"></path></g></g></svg>